<svg width="86" height="92" viewBox="0 0 86 92" fill="none" xmlns="http://www.w3.org/2000/svg">
<ellipse cx="38" cy="56.5" rx="24" ry="23.5" fill="#FFE871"/>
<path d="M21.1682 19.8788L22.4515 18.3465L51.2244 42.444C55.2159 45.7869 57.4925 49.5442 58.0541 53.7159C58.5968 57.8718 57.363 61.7468 54.3528 65.3411C51.1208 69.2002 47.6183 71.2878 43.8453 71.604C40.0722 71.9201 36.2656 70.4701 32.4255 67.2539L33.7088 65.7216C37.076 68.5417 40.3791 69.8436 43.6179 69.6272C46.8537 69.3761 49.9212 67.5196 52.8205 64.0578C55.3554 61.031 56.4109 57.7148 55.9869 54.1089C55.5788 50.4841 53.6581 47.1858 50.2249 44.2139L21.1682 19.8788Z" fill="#44503C" fill-opacity="0.67"/>
<path d="M55.8156 22.6998C56.1497 22.3155 56.7332 22.2738 57.1067 22.62C61.3744 26.5752 64.3595 31.7283 65.6629 37.4136C67.035 43.3989 66.4724 49.6653 64.056 55.3104C61.6396 60.9555 57.4942 65.6883 52.2165 68.8272C46.9388 71.966 40.8012 73.3492 34.6873 72.7774C28.5734 72.2056 22.7987 69.7084 18.1946 65.6453C13.5905 61.5822 10.3945 56.1629 9.06674 50.1676C7.73902 44.1723 8.34808 37.9103 10.8062 32.2833C13.1412 26.9382 17.0301 22.4279 21.9571 19.3327C22.3883 19.0618 22.954 19.211 23.211 19.6505V19.6505C23.468 20.0901 23.3191 20.6535 22.8885 20.9253C18.2982 23.8229 14.6747 28.0341 12.496 33.0214C10.1941 38.2908 9.62379 44.1547 10.8671 49.7689C12.1104 55.3831 15.1033 60.4579 19.4147 64.2627C23.7262 68.0675 29.1338 70.406 34.859 70.9414C40.5843 71.4768 46.3317 70.1816 51.2739 67.2423C56.2161 64.3029 60.098 59.8711 62.3608 54.5848C64.6235 49.2985 65.1504 43.4305 63.8655 37.8257C62.6494 32.5208 59.8696 27.7108 55.8962 24.0123C55.5235 23.6654 55.4815 23.0841 55.8156 22.6998V22.6998Z" fill="#0D0D0D"/>
</svg>
