<svg width="50" height="71" viewBox="0 0 50 71" fill="none" xmlns="http://www.w3.org/2000/svg">
<circle cx="25" cy="33" r="25" fill="#232557"/>
<path d="M24.3231 45.4501C21.5622 45.4501 19.4716 44.7499 18.0512 43.3495C16.6508 41.9491 15.9506 39.9985 15.9506 37.4978V24.0238H18.2913V37.6778C18.2913 39.5784 18.8214 40.9988 19.8817 41.9391C20.9421 42.8794 22.4225 43.3495 24.3231 43.3495C26.2236 43.3495 27.7041 42.8794 28.7644 41.9391C29.8247 40.9988 30.3548 39.5784 30.3548 37.6778V24.0238H32.6955V37.4978C32.6955 39.9985 31.9853 41.9491 30.5649 43.3495C29.1645 44.7499 27.0839 45.4501 24.3231 45.4501Z" fill="#F9F8F6"/>
<path d="M31.3862 53.2881V51.0303C32.4092 50.9718 33.2422 50.6211 33.8852 49.9781C34.5428 49.3351 34.8716 48.3341 34.8716 46.975V34.1077H37.2828V47.0407C37.2828 48.0199 37.1367 48.8894 36.8444 49.6493C36.5521 50.4092 36.143 51.0522 35.6169 51.5783C35.0908 52.119 34.4624 52.5282 33.7317 52.8058C33.0156 53.0981 32.2338 53.2588 31.3862 53.2881Z" fill="white"/>
<circle cx="41.5" cy="25.5" r="8.5" fill="#FFE871"/>
<circle cx="37.5" cy="28.5" r="2.5" fill="#232557"/>
</svg>
