<svg width="251" height="324" viewBox="0 0 251 324" fill="none" xmlns="http://www.w3.org/2000/svg">
<path fill-rule="evenodd" clip-rule="evenodd" d="M201.36 286.051C172.494 290.245 143.104 290.456 113.998 288.933C102.479 288.108 90.925 287.96 79.4153 289.014C72.6141 289.498 42.7945 291.678 40.3582 285.852C41.8916 254.825 44.9972 223.533 54.5245 193.693C58.4427 183.097 61.8079 174.303 69.4551 165.535C71.8652 163.141 77.0628 158.12 80.041 156.482C82.6212 155.064 83.6996 155.57 85.1812 153.174C86.6535 150.527 87.7394 146.107 89.8298 144.24C91.9583 142.338 95.1126 143.018 99.0223 143.631C98.3041 134.346 102.785 131.981 108.957 130.216C119.807 126.255 130.522 128.245 133.253 140.879C138.316 140.879 141.16 142.963 144.235 144.966C145.492 145.784 144.618 147.87 146.119 148.513C148.897 149.459 153.805 149.228 156.48 150.392C168.642 155.686 179.474 163.364 186.588 174.576C202.536 198.515 213.491 248.942 211.595 277.315C212.426 278.561 211.277 280.348 210.985 281.687C210.617 282.853 209.424 283.628 208.178 283.495C206.44 285.283 203.752 285.681 201.36 286.051Z" fill="white"/>
<path fill-rule="evenodd" clip-rule="evenodd" d="M81.8793 155.78C82.0565 155.686 81.9006 155.444 81.7225 155.524C73.1617 159.365 66.5944 166.105 61.9734 173.892C57.1885 181.955 54.4614 191.11 52.1102 200.058L52.0254 200.382C49.5182 209.954 47.3865 219.625 45.4673 229.319C43.5236 239.137 41.9635 249.015 40.7085 258.934C40.0876 263.838 39.5341 268.751 39.1024 273.674C38.8867 276.135 38.6907 278.597 38.5147 281.06C38.4443 282.045 38.3781 283.03 38.3212 284.016L38.2804 284.755C38.2453 285.426 38.162 286.099 38.3352 286.76C38.4848 287.331 38.8006 287.847 39.0783 288.371C39.6276 289.406 41.1334 289.236 41.7253 288.371L41.8972 288.119C42.2897 287.539 42.6159 287 42.739 286.277C42.8581 285.578 42.8625 284.845 42.916 284.139C43.0143 282.839 43.0981 281.539 43.1935 280.239C43.3939 277.502 43.6191 274.767 43.8683 272.034C44.3612 266.639 44.89 261.249 45.5393 255.869C46.6931 246.308 48.141 236.772 49.8479 227.286C51.5156 218.02 53.6238 208.848 55.8232 199.688L56.0511 198.74C59.902 182.746 65.8372 164.327 81.8793 155.78ZM173.063 218.408C173 218.248 172.729 218.211 172.683 218.408C172.106 220.892 172.049 223.45 171.961 225.992C171.874 228.501 171.878 231.02 171.916 233.53C172.057 242.754 172.322 251.97 172.551 261.193C172.665 265.806 172.773 270.42 172.855 275.033C172.886 276.764 172.912 278.494 172.934 280.225L172.961 282.507C172.974 283.516 173.002 284.513 173.13 285.521C173.215 286.184 173.396 286.816 173.779 287.385C174.05 287.788 174.437 287.993 174.815 288.267L174.885 288.319C175.366 288.683 175.873 288.686 176.35 288.319L176.488 288.215C176.943 287.874 177.337 287.608 177.628 287.069C178.032 286.321 178.097 285.507 178.165 284.682C178.27 283.431 178.2 282.161 178.187 280.906C178.16 278.389 178.124 275.873 178.077 273.356C177.908 264.126 177.573 254.894 176.963 245.681C176.675 241.341 176.285 236.987 175.762 232.665L175.662 231.855C175.504 230.583 175.359 229.289 175.196 227.99C177.63 226.353 179.77 224.365 181.594 222.111C181.729 221.945 181.507 221.713 181.345 221.873C179.481 223.72 177.343 225.192 174.977 226.349C174.589 223.631 174.056 220.928 173.063 218.408ZM132.396 136.132C132.363 136.108 132.311 136.097 132.279 136.132C131.756 136.716 131.862 137.608 131.845 138.347L131.843 138.416C131.805 139.497 131.798 140.575 131.802 141.657L131.814 145.1V145.1C131.815 145.573 131.855 146.066 131.83 146.542L131.817 146.727V146.727C131.542 146.996 131.414 147.385 131.507 147.776C131.524 148.277 131.798 148.695 132.198 148.958L131.341 150.121V150.121L130.484 151.283C128.716 153.68 126.93 156.057 125.067 158.389C123.169 160.766 121.143 163.054 119.023 165.254C117.987 166.329 116.934 167.389 115.856 168.425C115.418 168.846 114.97 169.257 114.526 169.672L114.084 170.089C113.823 170.339 113.495 170.586 113.321 170.902C113.22 171.089 113.196 171.549 113.16 171.625C112.833 172.312 113.391 173.409 114.318 173.066L114.276 173.039C114.107 172.927 114.215 172.925 114.601 173.034C114.844 173.033 115.071 172.98 115.284 172.874L115.348 172.841C115.648 172.695 115.915 172.413 116.159 172.187L116.219 172.132C116.776 171.633 117.307 171.103 117.841 170.582C118.955 169.493 120.044 168.381 121.099 167.239C123.202 164.961 125.196 162.591 127.085 160.147C129.008 157.658 130.796 155.041 132.334 152.317C132.917 151.283 133.452 150.229 133.965 149.163C134.963 148.857 135.195 147.841 135.126 146.697C135.494 145.877 135.826 145.039 136.022 144.184C136.049 144.066 135.891 143.956 135.797 144.058C135.477 144.405 135.182 144.775 134.898 145.154C134.726 144.352 134.509 143.614 134.407 143.143L133.965 141.066V141.066C136.459 140.941 139.191 141.921 140.91 143.637C141.003 144.084 141.362 144.404 141.713 144.821C142.113 145.299 142.462 145.835 142.723 146.395C143.301 147.637 142.975 149.467 144.096 150.378C144.213 150.473 144.343 150.539 144.478 150.58C143.946 153.075 144.188 155.825 144.199 158.357L144.2 158.58C144.197 161.413 144.296 164.249 144.41 167.08L144.527 169.882C144.678 173.62 144.776 177.358 144.396 181.075C142.663 179.607 140.87 178.205 139.016 176.87C137.797 175.992 136.554 175.145 135.288 174.33L134.259 173.672C133.026 172.882 131.763 172.068 130.414 171.502C128.648 170.761 126.97 171.016 125.265 171.775C123.568 172.532 121.921 173.41 120.256 174.23C118.563 175.064 116.866 175.89 115.17 176.719C114.047 177.268 112.401 177.764 111.577 178.774C111.524 178.551 111.463 178.328 111.391 178.106C111.473 177.767 111.442 177.401 111.243 177.052C108.474 172.186 105.913 167.204 103.369 162.228C102.082 159.71 100.858 157.162 99.5679 154.645L98.314 152.194C98.1044 151.785 97.8943 151.377 97.683 150.97C97.3666 150.36 97.0371 149.756 96.7172 149.147C96.582 148.89 96.4125 148.635 96.2809 148.375L96.2185 148.245C96.2155 148.239 95.9117 147.325 96.1464 147.412L96.1666 147.421C96.2864 147.486 96.3822 147.342 96.3047 147.25C95.9728 146.857 95.5106 147.205 95.3212 147.568C94.7995 148.568 95.7555 150.138 96.1232 151.095L96.1434 151.149C97.2846 154.238 98.5767 157.27 99.9007 160.291C102.439 166.084 105.166 171.787 107.887 177.501L107.919 177.599V177.599C107.339 177.174 106.72 176.788 106.189 176.412C104.851 175.463 103.473 174.562 102.098 173.663C99.5763 172.015 96.986 170.476 94.3528 168.997L93.8256 168.702C92.5103 167.969 91.2074 167.375 89.6461 167.595C88.1957 167.799 86.8472 168.544 85.5369 169.15L85.4014 169.212L81.3525 171.053C81.7854 169.402 82.254 167.759 82.743 166.122C83.6966 162.929 84.7459 159.763 85.8838 156.626C86.9465 153.694 88.0954 150.794 89.3106 147.918L89.6765 147.054C90.172 145.87 90.6647 144.578 92.0808 144.214C93.496 143.849 95.1193 144.39 96.4127 143.618C96.5303 143.548 96.5157 143.363 96.3732 143.328L95.5751 143.136C94.0765 142.779 92.3197 142.421 90.9027 142.768C89.3607 143.145 88.0849 144.383 87.3367 145.67C86.5049 147.102 85.9185 148.704 85.2872 150.23L85.1871 150.471C84.4626 152.198 83.7657 153.936 83.0989 155.685C81.7657 159.181 80.552 162.719 79.4534 166.288C78.924 168.009 78.4218 169.738 77.939 171.47C77.8003 171.969 77.5714 172.573 77.3836 173.203C77.1684 173.404 76.9646 173.628 76.7735 173.884C76.4565 174.308 76.684 174.805 77.0782 175.058C77.0935 175.492 77.1942 175.9 77.4351 176.25C78.3752 177.615 80.8607 177.263 80.7597 175.428C80.7445 175.147 80.63 174.879 80.4568 174.652L80.4616 174.615V174.615L80.4813 174.548V174.548C80.9128 174.35 81.3461 174.13 81.8028 173.914L86.0521 171.906V171.906C87.2828 171.324 88.647 170.425 90.0155 170.203C91.2914 169.997 92.6376 170.906 93.7339 171.455L93.8051 171.49C96.4554 172.789 99.086 174.132 101.706 175.485C102.985 176.146 104.248 176.834 105.522 177.503C106.588 178.062 107.737 178.865 108.935 179.181C109.446 179.561 110.054 179.51 110.542 179.222C110.319 180.544 110.333 181.901 110.264 183.253C110.172 185.06 110.158 186.872 110.128 188.681L110.115 189.359C110.035 193.359 109.992 197.36 109.976 201.361C109.919 215.608 110.084 229.859 110.123 244.106C110.142 251.264 110.29 258.428 110.485 265.583C110.567 268.615 110.739 271.643 110.926 274.671L111.028 276.322C111.245 279.806 111.373 283.329 112.047 286.766C112.135 287.214 112.928 287.225 113.006 286.766C113.627 283.083 113.661 279.319 113.78 275.593L113.806 274.848C113.949 270.847 114.017 266.849 114.002 262.846C113.949 248.593 113.562 234.35 113.245 220.101C113.086 212.943 112.979 205.781 112.731 198.624C112.608 195.043 112.467 191.465 112.301 187.885C112.227 186.287 112.156 184.69 112.045 183.095L111.995 182.411C111.96 181.965 111.932 181.524 111.899 181.087C113.406 181.614 114.785 180.639 116.141 179.972C117.704 179.202 119.266 178.432 120.83 177.664L122.395 176.898V176.898L125.527 175.37C126.937 174.681 128.023 173.996 129.527 174.804C134.946 177.711 139.925 181.58 144.437 185.64C145.302 186.419 147.131 186.21 147.35 184.905C148.286 179.33 147.717 173.675 147.239 168.084L147.062 166.008C146.849 163.528 146.616 161.049 146.307 158.58C146.168 157.475 146.03 156.371 145.877 155.269L145.76 154.442C145.569 153.135 145.444 151.836 145.037 150.583C145.166 150.543 145.289 150.478 145.399 150.378C146.623 149.268 146.033 147.341 145.475 146.02C144.924 144.716 144.083 143.578 143.03 142.599C142.8 142.385 142.477 142.247 142.152 142.24C139.599 140.622 136.799 139.815 133.884 140.698C133.802 140.324 133.719 139.95 133.631 139.577L133.541 139.204C133.315 138.279 133.23 136.751 132.396 136.132ZM106.234 282.222C105.442 282.013 104.575 282.233 103.994 282.788C103.414 283.343 103.184 284.173 103.403 284.93C103.512 285.303 103.709 285.627 103.994 285.902C104.261 286.156 104.572 286.336 104.928 286.445L105.01 286.468L105.14 286.52C105.537 286.622 105.934 286.622 106.331 286.52C106.711 286.418 107.04 286.234 107.32 285.969C107.597 285.701 107.79 285.386 107.896 285.023C108.003 284.643 108.003 284.263 107.896 283.884L107.842 283.76V283.76C107.733 283.387 107.535 283.063 107.25 282.788C106.963 282.515 106.624 282.326 106.234 282.222ZM59.2007 206.719C59.0706 206.576 58.8596 206.759 58.9405 206.911C60.1743 209.225 61.5495 211.522 62.901 213.777C62.7927 214.402 62.6854 215.022 62.5618 215.626C62.0353 218.202 61.3904 220.731 60.9699 223.331C59.4586 232.676 58.674 242.124 58.0008 251.553C57.3255 261.017 57.2392 270.484 57.1377 279.966C57.1289 280.788 57.7898 281.743 58.6753 281.898C59.0808 281.969 59.3841 281.955 59.7887 281.898C60.7103 281.768 61.2867 280.758 61.3263 279.966C61.5905 274.667 61.9461 269.374 62.3579 264.083C63.0879 254.702 63.534 245.297 64.1237 235.907L64.3314 232.625C64.5543 229.069 64.7582 225.51 64.8246 221.949C64.8688 219.589 64.7369 217.23 64.818 214.874C64.8929 212.698 65.1235 210.332 64.622 208.194C64.6034 208.114 64.4711 208.094 64.4329 208.17C63.9114 209.22 63.5811 210.362 63.3266 211.527C61.9827 209.901 60.6142 208.272 59.2007 206.719ZM147.227 149.243C147.038 149.23 147.046 149.501 147.227 149.521C149.864 149.814 152.412 150.84 154.902 151.713L155.115 151.787C157.631 152.66 160.084 153.676 162.444 154.886C167.059 157.252 171.297 160.303 175.044 163.796C190.003 177.739 196.821 197.846 201.816 216.741C204.592 227.239 206.566 237.914 207.845 248.672C208.477 253.992 208.925 259.332 209.185 264.681C209.319 267.422 209.403 270.166 209.438 272.91C209.456 274.315 209.462 275.721 209.46 277.127C209.459 277.771 209.339 278.582 209.519 279.207C209.686 279.787 210.157 280.297 210.505 280.779C210.918 281.352 211.66 281.322 212.079 280.779L212.234 280.582C212.68 280.015 213.117 279.474 213.181 278.733C213.249 277.939 213.201 277.121 213.204 276.324C213.211 274.717 213.19 273.11 213.157 271.504C213.092 268.426 212.965 265.349 212.777 262.275C212.394 256.037 211.764 249.811 210.862 243.622C209.259 232.622 206.856 221.726 203.708 211.035C200.739 200.95 197.221 190.894 192.209 181.552C187.556 172.878 181.451 164.809 173.396 158.747C169.651 155.928 165.573 153.579 161.177 151.809C158.96 150.917 156.631 150.188 154.263 149.773C151.922 149.363 149.59 149.42 147.227 149.243ZM105.781 264.395C105.362 264.392 104.896 264.48 104.537 264.701L104.058 265.056V265.056C103.928 265.215 103.798 265.376 103.67 265.536C103.37 265.91 103.33 266.514 103.393 266.96C103.407 267.257 103.499 267.534 103.67 267.79L104.035 268.242V268.242C104.386 268.516 104.678 268.711 105.103 268.843C105.325 268.911 105.539 268.926 105.752 268.915L105.823 268.911L105.781 268.916L105.855 268.908V268.908C105.925 268.903 105.994 268.896 106.064 268.886C106.112 268.881 106.159 268.877 106.207 268.871C106.253 268.867 106.297 268.866 106.343 268.87C106.883 268.918 107.426 268.625 107.809 268.289C108.155 267.986 108.465 267.343 108.416 266.887L108.396 266.696C108.359 266.375 108.33 266.248 108.187 265.925C108.049 265.611 107.856 265.334 107.592 265.1C107.089 264.652 106.472 264.4 105.781 264.395ZM107.452 240.875C106.735 240.128 105.504 240.073 104.616 240.525C104.399 240.635 104.2 240.812 104.009 240.96C103.528 241.332 103.339 242.003 103.313 242.568C103.287 243.127 103.595 243.791 104.009 244.177L104.11 244.27V244.27C104.357 244.501 104.712 244.701 105.059 244.762C105.618 244.86 106.087 244.857 106.607 244.647C107.054 244.467 107.44 244.177 107.702 243.783L107.744 243.716C107.762 243.689 107.779 243.661 107.795 243.632L107.818 243.589C108.316 242.673 108.182 241.636 107.452 240.875ZM107.081 217.232C106.758 217.135 106.435 217.121 106.111 217.19C105.892 217.191 105.687 217.244 105.498 217.349C105.292 217.404 105.113 217.504 104.961 217.648C104.779 217.751 104.633 217.89 104.525 218.065C104.31 218.29 104.165 218.553 104.09 218.856L104.003 219.474L104.09 220.093L104.335 220.648V220.648C104.403 220.732 104.47 220.816 104.539 220.9C104.647 221.075 104.793 221.215 104.976 221.319C105.095 221.432 105.232 221.517 105.384 221.575C105.926 221.946 106.647 222.068 107.288 221.898C107.669 221.797 108 221.612 108.281 221.346C108.559 221.077 108.752 220.761 108.859 220.397L108.902 220.106C108.959 219.716 108.968 219.5 108.853 219.004C108.802 218.786 108.655 218.478 108.578 218.348C108.249 217.796 107.712 217.417 107.081 217.232ZM79.0129 200.222C78.0847 200.216 77.1566 200.217 76.2285 200.227L75.5325 200.236C74.367 200.253 73.3687 200.139 72.4524 200.912C71.7874 201.473 72.0804 202.415 72.7116 202.838C73.6681 203.478 74.8679 203.156 75.9673 203.086C77.1269 203.011 78.2873 202.95 79.4482 202.9C81.6959 202.804 83.9445 202.742 86.1945 202.733C88.4395 202.724 90.6879 202.744 92.9328 202.779C95.217 202.814 97.5953 203.018 99.8667 202.792C100.179 202.761 100.249 202.368 99.9409 202.266C97.8006 201.558 95.3929 201.328 93.1498 201.057C90.8362 200.778 88.5226 200.58 86.1945 200.452C83.8031 200.32 81.4082 200.238 79.0129 200.222ZM107.085 193.265L107.008 193.267C106.6 193.268 106.217 193.36 105.861 193.543L105.785 193.583L105.294 193.945C104.994 194.235 104.786 194.576 104.671 194.969L104.585 195.585V195.585C104.572 195.904 104.642 196.202 104.793 196.478C104.891 196.765 105.058 197.014 105.294 197.224C105.514 197.45 105.774 197.61 106.074 197.703C106.341 197.837 106.627 197.904 106.932 197.905L107.008 197.903C107.446 197.902 107.853 197.796 108.231 197.587L108.722 197.224V197.224C109.022 196.935 109.23 196.594 109.345 196.201L109.432 195.585V195.585C109.444 195.266 109.375 194.968 109.223 194.692C109.125 194.404 108.958 194.155 108.722 193.945C108.502 193.719 108.243 193.56 107.942 193.466C107.675 193.332 107.39 193.265 107.085 193.265V193.265ZM99.8999 138.807C99.3778 138.083 98.4315 138.727 98.567 139.308C98.5312 140.942 98.4439 142.527 98.0552 144.127C97.8774 144.86 97.6443 145.593 97.2848 146.264L97.1338 146.547C96.6685 147.426 96.3072 148.255 96.9339 149.22C97.2293 149.675 97.7631 150.016 98.3418 149.993C100.908 149.887 101.261 146.47 101.417 144.562C101.578 142.598 101.077 140.439 99.8999 138.807Z" fill="black"/>
<path fill-rule="evenodd" clip-rule="evenodd" d="M73.3776 95.1187C74.215 81.9723 78.6747 67.0677 91.8 60.613C120.736 49.5049 158.78 77.4783 160.794 106.055C161.496 115.838 155.818 126.527 145.442 129.246C143.135 132.17 139.646 133.955 136.203 135.505C95.1883 155.859 68.6948 139.314 73.3776 95.1187V95.1187Z" fill="white"/>
<path fill-rule="evenodd" clip-rule="evenodd" d="M64.0338 86.9409C65.4832 83.0901 67.0144 79.2689 68.6252 75.4773C70.1939 71.7871 71.6109 68.0172 73.559 64.5019C85.1943 43.5063 106.352 43.5063 117.29 46.2497C122.961 43.9121 133.585 44.5715 139.491 46.6808C149.052 50.0956 160.707 63.5286 164.691 69.5639C173.489 82.8894 178.98 100.625 173.136 116.023C172.372 118.036 171.398 119.9 170.301 121.696C170.992 122.592 171.787 123.44 172.668 124.274C175.286 126.751 177.904 129.147 180.165 131.941C182.413 134.718 184.276 137.671 185.663 140.927C188.278 147.067 188.404 154.02 184.946 159.879C181.938 164.976 176.609 168.772 170.606 169.134C170.298 169.175 169.989 169.213 169.679 169.243C168.884 170.496 167.914 171.65 166.807 172.656C163.415 175.742 155.331 177.325 150.719 177.426C150.483 177.608 150.244 177.79 150.006 177.97C147.184 180.094 144.223 182.237 140.984 183.748C138.79 184.773 135.913 185.629 133.624 184.889C132.586 185.553 130.882 185.413 129.853 184.87C128.16 183.978 126.784 182.372 125.946 180.728C123.916 176.735 124.404 172.367 124.926 168.102C125.5 163.391 126.052 158.677 126.614 153.966C127.053 150.283 127.513 146.538 128.684 142.989C129.289 141.15 130.083 139.383 131.108 137.722C131.081 137.583 131.086 137.443 131.128 137.312C131.464 136.268 132.157 135.721 132.979 135.01C133.085 134.92 133.191 134.827 133.295 134.731C133.706 134.283 134.146 133.867 134.616 133.514C134.798 133.339 134.977 133.161 135.156 132.984C136.643 131.494 138.048 129.927 139.296 128.249C140.507 126.622 141.601 124.923 142.641 123.192C143.7 121.431 144.4 119.489 145.456 117.741C145.547 117.591 145.777 117.561 145.905 117.686C146.232 118.009 146.442 118.369 146.402 118.747L146.566 118.77C146.627 118.2 147.178 117.735 147.924 117.859C149.042 118.045 149.962 118.115 150.929 117.76C150.759 116.68 150.602 115.598 150.448 114.514C150.165 112.519 149.902 110.517 149.676 108.516C149.131 108.64 148.589 108.82 148.059 109.048C147.303 109.372 146.59 109.807 145.98 110.342C145.379 110.87 144.964 111.582 144.23 111.95C143.386 112.371 142.367 111.675 142.615 110.762C143.116 108.917 145.956 107.86 147.712 107.512C148.315 107.391 148.932 107.34 149.548 107.353C149.409 106.068 149.285 104.783 149.184 103.496C149.135 102.887 149.091 102.279 149.049 101.668C147.684 101.273 146.221 101.154 144.8 101.34C144.332 101.697 143.863 102.05 143.41 102.408C141.972 103.545 140.54 104.688 139.126 105.853C138.998 105.956 138.872 106.06 138.744 106.165C137.904 106.856 136.857 106.172 136.998 105.193C138.152 97.1745 133.017 90.796 127.005 85.8546C120.35 80.3827 108.25 79.7456 100.336 70.2675C96.691 70.9771 88.5527 73.0848 85.1943 78.2037C80.4924 85.377 81.1067 91.8041 80.7487 99.9411C80.3908 108.084 79.4805 116.579 81.4138 124.608C83.1969 132.011 88.0246 138.337 95.5149 141.245C95.7005 141.317 95.8883 141.387 96.0761 141.455C99.9493 142.852 104.176 143.247 108.25 142.511C112.76 141.695 116.525 139.721 120.277 137.293C120.493 137.156 120.809 137.439 120.646 137.646C115.701 143.915 105.988 146.009 98.2834 144.354C97.9232 144.276 97.5653 144.192 97.2095 144.099C98.933 148.839 98.5861 154.043 96.3412 158.658C94.9912 161.436 92.9319 163.839 90.4242 165.734C87.6601 167.823 84.2309 169.509 82.3131 172.441C80.5565 175.127 81.0779 178.145 84.0851 179.696C84.8429 180.089 85.1346 181.36 84.3834 181.918C84.0961 182.129 83.8089 182.344 83.515 182.556C81.8314 183.771 77.2069 186.054 76.4579 186.138C69.8072 186.893 65.3352 182.222 62.4695 176.712C59.1044 170.245 59.9794 162.363 63.6869 156.205C66.6609 151.263 72.5183 146.394 70.1895 140.14C69.3587 137.906 67.6596 136.002 66.0091 134.281C64.1266 132.322 62.1027 130.488 60.2975 128.459C58.5034 126.444 56.9126 124.253 56.0243 121.725C54.7274 118.031 55.3725 114.036 56.3469 110.348C58.4349 102.431 61.146 94.6193 64.0338 86.9409Z" fill="black"/>
<path fill-rule="evenodd" clip-rule="evenodd" d="M101.287 128.274C102.772 127.695 104.097 126.728 105.066 125.493C105.403 125.063 105.49 124.61 105.42 124.195C105.34 123.729 105.052 123.306 104.658 123.023C104.264 122.739 103.771 122.598 103.293 122.67C102.879 122.732 102.466 122.949 102.14 123.399L102.071 123.489C101.495 124.235 100.745 124.846 99.8894 125.241C99.0651 125.621 98.1431 125.798 97.1891 125.695C95.372 125.499 94.1196 124.559 92.7884 123.282C92.6234 123.121 92.4583 122.955 92.2924 122.786C92.1876 122.633 92.0422 122.534 91.8808 122.483C91.7016 122.425 91.4988 122.429 91.3131 122.491C91.1339 122.55 90.9738 122.664 90.8664 122.815C90.7644 122.958 90.7065 123.135 90.7253 123.339C90.8471 124.661 91.5702 125.842 92.5972 126.769C93.7379 127.799 95.2499 128.511 96.6734 128.761C98.2416 129.036 99.8397 128.839 101.287 128.274V128.274ZM95.9336 107.866C94.2651 108.836 91.7228 111.098 93.5177 113.503C95.6305 115.624 98.6724 113.193 100.171 112.093C101.561 111.241 103.123 113.433 101.833 114.428C91.0016 122.099 86.6059 108.12 95.0897 106.726C96.0238 106.572 96.3707 107.566 95.9336 107.866ZM115.344 98.9429C115.16 96.7541 111.675 96.257 111.328 98.423C111.018 100.363 111.383 102.145 112.297 103.892C113.17 105.561 115.364 104.783 115.53 103.263C115.753 101.226 115.459 100.304 115.344 98.9429ZM88.8162 97.9738C88.3303 97.3652 87.6288 96.9496 86.7883 97.1845C84.1623 97.9185 84.9363 101.485 85.8585 103.22C86.3596 104.163 87.9794 104.402 88.7115 103.572C89.9046 102.219 90.476 99.5156 88.9591 98.1825C88.918 98.1136 88.8723 98.044 88.8162 97.9738ZM112.334 89.3654L111.919 89.2959C110.636 89.0836 109.04 88.8796 108.133 89.8665C107.651 90.3898 107.485 91.3624 108.133 91.8633C109.271 92.7446 110.529 92.4031 111.894 92.4777C113.018 92.5394 114.098 92.7174 115.181 93.0135C117.557 93.663 119.493 94.8486 121.522 96.1506C121.788 96.3213 122.06 95.9956 121.932 95.7574C120.761 93.563 118.491 91.7604 116.218 90.6616C115.004 90.0751 113.676 89.5885 112.334 89.3654ZM91.2099 88.3823L90.8924 88.4445C87.4374 89.1353 82.9484 90.5153 81.3123 93.7615C81.25 94.2205 81.3158 94.3189 81.3694 94.3832L81.3872 94.4046C81.4314 94.4595 81.4666 94.5351 81.6746 94.5976C81.7323 94.5844 81.7906 94.5705 81.8495 94.5557C82.5995 94.3677 83.1929 94.1087 83.7673 93.84L84.3902 93.5465C85.1128 93.2076 85.8418 92.881 86.6144 92.6399C88.2632 92.1254 89.9591 91.7631 91.6812 91.5696C92.0545 91.5277 92.4139 91.4072 92.6975 91.2006C92.9667 91.0046 93.1723 90.7332 93.266 90.3724C93.3875 89.9056 93.3526 89.5521 93.0907 89.1309C92.8938 88.8146 92.6121 88.5953 92.2885 88.4694C91.9587 88.3411 91.5832 88.3108 91.2099 88.3823Z" fill="black"/>
</svg>
